<svg width="36" height="48" viewBox="0 0 36 48" fill="none" xmlns="http://www.w3.org/2000/svg">
<rect width="36" height="48" fill="black"/>
<g clip-path="url(#clip0_4014_18)">
<path d="M13.3946 38.6758C13.6722 38.3984 13.6964 38.1568 13.467 37.9518C13.2855 37.7831 13.002 37.8493 12.6163 38.151C12.5439 38.2354 12.5073 38.3137 12.5078 38.3863C12.5076 38.5433 12.6284 38.6574 12.8698 38.7299C12.4471 38.7666 12.1032 38.7846 11.8381 38.7847C11.7778 38.6519 11.6629 38.5131 11.4941 38.3684C11.494 33.8307 11.4334 29.1609 11.313 24.3585L10.9692 10.6746C11.1862 10.5543 11.3857 10.4095 11.5667 10.2405L13.3221 10.2404C13.8771 10.2406 14.4325 10.2764 14.9873 10.349C15.0961 10.4336 15.2106 10.6931 15.331 11.1269C15.2949 11.1876 15.3523 11.5462 15.5029 12.2042C15.6544 12.8616 15.7626 13.2453 15.8289 13.3533C15.8957 13.4622 15.9228 13.5227 15.9105 13.5343C15.8987 13.5226 15.8805 13.5163 15.8563 13.5163C15.8324 13.5525 15.8444 13.619 15.8924 13.7157C16.2301 14.4394 16.6583 15.5256 17.1777 16.9739C17.2618 17.3233 17.3946 17.764 17.5756 18.2951C17.5758 18.5119 17.6905 18.829 17.9195 19.245C18.1489 19.6618 18.2698 19.9721 18.2816 20.1771C18.3659 20.3823 18.4866 20.6961 18.6435 21.1183C18.6315 21.1791 18.6253 21.2392 18.6254 21.2997C18.6614 21.4202 18.8069 21.8003 19.0597 22.4401C19.108 22.9705 19.223 23.3452 19.4036 23.5621C19.7298 23.9601 19.9706 24.1355 20.1278 24.0873C20.1885 22.808 20.3091 21.2995 20.4897 19.562C20.5623 18.8744 20.5923 18.2349 20.5802 17.6433L20.5442 15.8335C20.5321 15.5075 20.5077 14.8983 20.4719 14.0054C20.4354 13.2451 20.4172 12.6419 20.4176 12.1949C20.4176 11.6036 20.4598 11.0428 20.5438 10.5117C20.6526 10.4876 20.743 10.4635 20.8155 10.4396C20.9362 10.3312 21.576 10.2589 22.7342 10.2224C23.8803 10.1862 24.5442 10.2284 24.7252 10.3486C25.0755 10.4574 25.2383 10.85 25.2142 11.5258L25.1598 13.209C25.148 13.7517 25.0448 14.8981 24.8516 16.6479C24.7555 17.5531 24.6771 19.7608 24.6166 23.2725L24.5626 26.4582L24.544 32.413C24.5443 35.8279 24.5504 37.8131 24.5624 38.3678C24.1277 38.5974 23.772 38.6997 23.4941 38.6757C23.277 38.6637 22.8732 38.6458 22.282 38.6217C22.1732 38.6217 22.0134 38.64 21.802 38.6757C21.5911 38.7123 21.4371 38.73 21.3403 38.7304C21.2559 38.7298 21.1658 38.7241 21.0689 38.7117C20.9602 38.6399 20.8093 38.495 20.6166 38.2778C20.5201 38.097 20.291 37.5779 19.9286 36.7211C19.4458 35.5868 19.1022 34.7421 18.897 34.1868C18.8367 33.9454 18.74 33.6139 18.6072 33.1917C18.8369 33.1914 18.9513 33.0771 18.951 32.8474C18.9513 32.775 18.9211 32.6966 18.8606 32.6121C18.6677 32.4673 18.5106 32.4011 18.3902 32.4129C18.3058 32.0754 18.1669 31.5805 17.9741 30.9291L18.0104 30.9288C18.1432 30.953 18.3418 30.965 18.6075 30.9652C18.6072 30.9772 18.6197 30.9834 18.6439 30.9834C18.8246 31.0916 19.0356 31.1581 19.2771 31.1823C19.3131 31.194 19.3617 31.2007 19.4222 31.2005C19.5785 31.2005 19.6571 31.1036 19.6568 30.9109L19.6575 30.0782C19.6573 29.9331 19.5849 29.8427 19.4403 29.8068L19.4399 29.3362C19.4402 29.1309 19.3375 29.0287 19.1322 29.0284L18.4804 29.0286L18.4804 28.9199C18.481 28.7267 18.3782 28.6303 18.1729 28.63L17.9013 28.6304C17.576 28.6299 17.4913 28.7814 17.6479 29.0827L17.9741 29.6982H17.5392L17.5396 29.662C17.5273 29.6495 17.5215 29.6316 17.5216 29.6075C17.2924 29.2454 16.9782 28.7149 16.5802 28.0149L16.598 28.0147H17.0145L17.0147 28.051L17.1228 28.0693L17.1591 27.9603C17.1711 27.9607 17.1955 27.9545 17.2315 27.9421C17.232 27.9059 17.2436 27.8757 17.2678 27.8516C17.304 27.7433 17.3226 27.695 17.3222 27.707L17.3222 27.5982C17.3222 27.5137 17.2924 27.4417 17.2318 27.3814L17.232 27.309H17.1233L17.0143 27.2727L16.6348 27.2726C16.4656 27.2728 16.3628 27.3568 16.3267 27.5262C16.1942 27.1638 15.9946 26.7841 15.7297 26.3855C15.5125 26.748 15.4217 27.2965 15.4583 28.0326C15.5061 29.0106 15.5484 29.7041 15.5848 30.1147C15.078 30.1147 14.8244 30.223 14.8245 30.4405L14.8246 30.5485C14.8243 30.7538 14.9212 30.8565 15.1139 30.8563H15.639C15.6752 31.0131 15.687 31.1946 15.6754 31.3998C15.6629 31.5684 15.6449 31.9061 15.6207 32.4128L15.5848 33.4088C15.597 33.4931 15.6267 33.6979 15.675 34.0242C15.7115 34.2778 15.7114 34.5066 15.6748 34.7121C15.6632 34.8085 15.6329 34.9532 15.5847 35.1464C15.5484 35.3029 15.5485 35.4778 15.5847 35.6716C15.6569 36.0334 15.6872 36.5277 15.6753 37.1556C15.6631 37.7343 15.6332 38.1933 15.5845 38.5313C15.295 38.6996 14.9752 38.7845 14.6255 38.7846C14.5292 38.7247 14.0943 38.7062 13.3204 38.7298C13.3147 38.7297 13.3096 38.7305 13.3039 38.7304L13.3204 38.7298C13.3492 38.7283 13.3743 38.7222 13.3948 38.7121L13.3946 38.6758ZM15.1141 33.7887C14.9208 33.7887 14.7398 33.8674 14.5713 34.0241C14.426 34.1686 14.4263 34.3136 14.5709 34.4582C14.7037 34.5912 14.8423 34.6575 14.9873 34.6572L14.9873 34.6757L15.0051 34.6755C15.0293 34.6756 15.0597 34.6575 15.0956 34.6216C15.1441 34.6211 15.1802 34.603 15.2048 34.567L15.2226 34.5668C15.3554 34.4346 15.4219 34.2897 15.4221 34.1327C15.4218 33.9031 15.3195 33.7889 15.1141 33.7887ZM38.2644 28.9015C38.3124 29.3721 38.3309 29.8311 38.3187 30.277C38.2943 30.8085 38.2466 31.2491 38.1742 31.5986C38.1736 31.9246 38.1557 32.2382 38.1196 32.5398C38.1676 32.6365 38.1797 32.7691 38.1557 32.9382C38.0231 33.1308 37.8118 33.463 37.5224 33.9333C37.426 34.2955 37.2326 34.8265 36.9434 35.5265C36.8105 35.7439 36.5929 35.8583 36.2912 35.8705C35.869 35.8946 35.5793 35.9306 35.4228 35.979C35.0123 36.2804 34.6445 36.5337 34.3187 36.7392C34.2097 36.8116 33.7637 36.9323 32.9794 37.101C32.8105 37.1374 32.6471 37.137 32.4904 37.1014C32.382 37.0894 32.231 37.0589 32.0378 37.0107C31.7608 36.9862 31.3503 36.9082 30.8074 36.7755C30.5052 36.6064 30.0468 36.3649 29.4315 36.0515C29.299 36.0153 29.1596 35.9972 29.0154 35.9969C28.9187 35.9973 28.8218 36.0033 28.7256 36.0152C28.46 36.0513 28.2609 35.9909 28.1281 35.8338C28.032 35.7497 27.9532 35.5744 27.8927 35.3094C27.8207 34.9469 27.7721 34.7541 27.7481 34.7299C27.6519 34.6458 27.4766 34.4645 27.2233 34.187C27.0785 34.0302 26.9698 33.7886 26.8972 33.4628L26.8974 33.0827C26.7409 32.6243 26.6501 32.3107 26.6258 32.1415C26.6622 32.2258 26.68 32.0693 26.68 31.6713L26.6801 30.7481C26.7287 30.5188 26.7526 30.2651 26.7523 29.9879L26.7524 28.6482C26.6681 28.3343 26.6259 27.9904 26.6259 27.6165L26.626 25.5897C26.6261 25.1306 26.6081 24.6724 26.5719 24.2135C26.4993 23.9724 26.4752 23.6831 26.4991 23.3448C26.5116 23.1761 26.5175 22.8622 26.5174 22.4037C26.5177 22.1984 26.5021 21.8851 26.4718 21.4627C26.4421 21.0404 26.4267 20.7264 26.427 20.5211C26.4272 20.1836 26.4633 19.8578 26.5354 19.5438C26.5358 18.9164 26.5475 18.4455 26.5718 18.1322C26.7168 17.7582 26.8436 17.3778 26.952 16.9918C26.9757 16.8951 26.94 16.6361 26.8428 16.2135L26.8611 15.9597L26.7891 15.9603C26.7891 15.8516 26.7772 15.761 26.7526 15.6883L26.8615 15.7246L26.9155 15.3084L26.8072 15.2722L26.7526 15.6883C26.753 15.3871 26.7349 15.1576 26.6987 15.0008C26.6742 14.904 26.759 14.5664 26.9519 13.987C26.9881 13.6371 27.1329 13.2026 27.3863 12.6842C27.4345 12.5756 27.555 12.3939 27.7479 12.1407C27.7721 12.1167 27.8088 12.1045 27.8571 12.1046C27.8812 12.0201 27.935 11.8696 28.0196 11.6521C28.056 11.556 28.2672 11.3325 28.6531 10.9825L28.7072 11.0908L28.6898 11.4529L28.7981 11.5075L28.9247 11.5258L29.0332 11.471L29.015 10.9103L29.1239 10.9282L29.2686 10.9826L29.3775 11.0189C29.3168 10.9827 29.2628 10.9405 29.2146 10.8921L29.0874 10.7649L29.1235 10.7653C29.6183 10.5603 30.1615 10.3129 30.753 10.0229C30.9098 10.0109 31.1451 9.93892 31.4586 9.80615L34.0291 9.80627C34.2584 9.90254 34.7229 10.0839 35.423 10.3489C35.5677 10.3976 35.7361 10.4456 35.9293 10.4938C35.9774 10.5422 36.0563 10.6323 36.165 10.7652C36.5873 11.0909 36.8646 11.3265 36.997 11.4714C37.0333 11.5799 37.0936 11.7368 37.1788 11.9415C37.2505 12.0503 37.3174 12.135 37.3773 12.1952C37.4739 12.376 37.5949 12.6962 37.7394 13.1542V13.3717C37.7756 13.5044 37.8666 13.7881 38.011 14.2227C38.0352 14.355 38.047 14.4939 38.0472 14.6389C38.0475 14.7839 38.0173 14.9947 37.9565 15.272C37.8962 15.55 37.866 15.7608 37.8662 15.9059C37.8662 16.0146 37.8787 16.1167 37.9025 16.2134L38.0656 16.6842L38.0653 18.4942C38.0893 18.6144 38.1015 18.7413 38.1014 18.8742C38.1016 19.0192 38.0959 19.1335 38.0831 19.2182C38.0591 19.3873 38.0653 19.6164 38.1013 19.906C38.1497 20.2559 38.1737 20.4847 38.1737 20.5935L38.174 23.4171L38.228 27.5443L38.0653 27.5441V27.6528L38.228 27.653C38.2281 28.2678 38.2401 28.6846 38.2644 28.9015ZM22.0825 31.0193L22.1006 30.9652L22.0281 30.8562L21.974 30.8566L21.9737 30.9106L22.0462 31.0195L22.0825 31.0193ZM20.3991 30.1326L20.3813 30.0056L20.4354 29.8431L20.4355 29.6442L20.3265 29.6079L20.2367 29.7522L20.2362 29.8068L20.2906 29.8612L20.2365 29.8431C20.2123 30.2169 20.2421 30.416 20.3267 30.4401H20.3451L20.3269 30.2774L20.3991 30.1326ZM34.2521 15.9573C34.2828 15.7367 34.2869 15.5807 34.2645 15.4894C33.9868 14.4279 33.4317 13.8364 32.5992 13.7157L32.6716 13.5169V13.4082L32.6173 13.3538L32.5988 13.3538L32.4 13.6793L32.0198 13.6791L32.0196 13.77C31.9835 13.7696 31.9654 13.7761 31.9657 13.7883C31.5797 13.9691 31.3018 14.2344 31.1327 14.5842C31.0367 14.717 30.9883 14.9165 30.9883 15.1816L30.9878 15.9419C30.9878 16.1593 30.97 16.3585 30.9337 16.5392C30.9335 16.6963 30.9396 16.9253 30.9519 17.2271C30.9641 17.5289 30.9703 17.7579 30.9701 17.915C30.9699 18.7592 30.9879 20.0233 31.0244 21.7068C31.0609 23.3902 31.0785 24.645 31.0788 25.4716C31.0784 26.298 31.1388 26.9531 31.2597 27.4354C31.3077 27.6409 31.3139 27.8458 31.2775 28.0506C31.2292 28.268 31.2235 28.5521 31.2599 28.9016L31.3864 30.3497C31.3621 30.6154 31.3805 30.8385 31.4407 31.0195C31.477 31.526 31.6457 31.9785 31.9476 32.377C32.0802 32.5583 32.2975 32.6122 32.5991 32.5395C32.9852 32.4433 33.2387 32.3591 33.3592 32.2862C33.4077 32.1898 33.4891 32.0666 33.6035 31.9153C33.7184 31.7649 33.8301 31.6107 33.9383 31.4535C34.0109 31.1162 34.1193 30.603 34.2644 29.9156L34.2643 28.3222C34.3368 28.009 34.3611 27.6346 34.3367 27.2003C34.3127 26.7781 34.3004 26.3917 34.3003 26.042H34.3188L34.6263 25.9872L34.7709 26.0416L35.4229 25.9875L35.3142 25.6982L35.1513 25.8792L34.7711 25.7702L34.7167 25.8246L34.6626 25.825L34.6261 25.7704L34.6626 25.6978L34.5724 25.191L34.6265 25.0101L34.572 24.8292V23.9245L34.5175 23.0009L34.5721 23.0013L34.5716 22.9287L34.5179 22.8745L34.5177 22.8197L34.5719 22.766L34.5175 22.6029L34.5721 21.9694L34.5173 21.5532H34.4271C34.4274 21.7217 34.3907 21.8427 34.3188 21.915V21.5171C34.3185 21.1787 34.3307 20.7989 34.355 20.3769C34.3065 19.9901 34.2823 19.4228 34.2822 18.6752C34.2946 18.6025 34.3005 18.506 34.3009 18.3853C34.3007 18.2772 34.2884 18.1744 34.2646 18.0778L34.2642 17.281L34.3183 17.3175C34.3183 17.2088 34.3669 17.155 34.4636 17.1546L34.4632 17.2092L34.5358 17.1001L34.608 17.1727L34.7168 17.1727L34.6267 16.9915L34.4814 16.9554L34.4634 17.0096L34.4814 17.0457L34.2644 17.0096L34.2645 16.0146C34.2589 15.9826 34.2547 15.9637 34.2521 15.9573ZM58.4008 12.0413C58.6972 12.0837 58.9239 12.1047 59.0825 12.1045C59.2272 12.2009 59.4024 12.4063 59.6076 12.72C59.6801 12.8289 59.7163 12.9616 59.7162 13.1186C59.7161 13.1904 59.6435 13.4801 59.4991 13.9872C59.2091 15.0004 58.9079 15.5437 58.5936 15.6158C58.4368 15.652 58.1235 15.6703 57.6529 15.6708C57.2664 15.6702 56.7777 15.6587 56.1866 15.6339C55.9816 15.4894 55.6314 15.4411 55.1365 15.4897C54.6297 15.538 54.2679 15.586 54.0509 15.6345C53.6891 16.0805 53.4775 16.4189 53.4169 16.6479C53.4174 16.8768 53.4356 17.1909 53.4717 17.5893C53.5078 18.0353 53.526 18.3493 53.5258 18.5305C53.5376 18.7597 53.5168 19.0917 53.4624 19.5255C53.4085 19.9602 53.3811 20.2798 53.3808 20.4851C53.3814 20.7987 53.4291 21.0822 53.526 21.3356L53.4899 21.6614L53.5804 21.6977L53.5983 21.517C53.755 21.7701 53.93 21.9392 54.1234 22.0237C54.2681 22.1442 54.4551 22.205 54.684 22.2045V22.6025L54.9558 22.6569L55.01 22.1867C55.4687 22.0054 56.2104 21.8126 57.2363 21.607C57.4175 21.716 57.6948 21.8905 58.0692 22.1322C58.25 22.4337 58.425 22.6689 58.5937 22.8378C58.5936 22.9628 58.61 23.1428 58.6414 23.3786L58.6547 23.4746C58.6869 23.7099 58.7025 23.8903 58.7026 24.0147C58.7027 24.208 58.6663 24.3703 58.5936 24.5036C58.5698 24.5157 58.5577 24.5395 58.558 24.5758L58.4307 24.5573V24.6661L58.5033 24.6841C58.2498 25.2273 57.7971 25.487 57.1456 25.4624C56.494 25.4384 55.8487 25.4382 55.2089 25.4629L55.2269 25.1913L55.3355 24.956L55.2813 24.9379C55.1732 24.9623 55.0947 25.0166 55.0464 25.101L55.2091 25.1915L55.2089 25.2454L55.1006 25.2093L54.974 25.2998L54.9557 25.4264L55.0647 25.4627H55.0462C54.4668 25.5349 54.0626 25.6618 53.8335 25.8428C53.4957 26.1808 53.3266 26.6208 53.3268 27.1639C53.327 27.4176 53.387 27.8701 53.5081 28.5215C53.6162 29.1126 53.6462 29.5656 53.5985 29.879C53.4174 31.0614 53.3445 31.7738 53.3809 32.0146L53.2726 32.7211L53.4711 32.7573C53.544 33.2039 53.5621 33.5477 53.5259 33.7889C53.4893 34.0421 53.4176 34.5246 53.3085 35.2366C53.2245 35.7677 52.9468 36.1119 52.4762 36.2687C52.2707 36.4495 51.9812 36.5219 51.6072 36.4857C51.1367 36.4378 50.8112 36.401 50.6299 36.3773C50.3402 36.0872 49.99 35.5748 49.5796 34.8387C49.3749 34.1385 49.3748 33.4811 49.5801 32.866C49.7727 32.2744 49.8154 31.659 49.7068 31.0194C49.5254 29.9936 49.4653 28.7509 49.5254 27.2909C49.5861 25.7223 49.7069 24.5153 49.8878 23.6704C49.9483 23.4052 49.8905 22.9313 49.7156 22.2498C49.5407 21.5683 49.4953 21.0402 49.5799 20.6663C49.8578 19.4594 49.9297 18.1142 49.7973 16.6296C49.7367 15.9539 49.7069 15.2722 49.7065 14.5841C49.7066 13.8727 49.7432 13.1846 49.8151 12.521C50.153 12.2917 50.4248 12.0809 50.6294 11.8877L51.8424 11.9598C52.3249 11.9839 52.7114 12.032 53.0011 12.1046C53.2542 12.1653 53.5321 12.1652 53.8334 12.1045C54.0021 12.0687 54.2379 12.0324 54.5397 11.996C55.1669 11.9842 55.6555 12.0199 56.0059 12.1046C56.1984 12.1526 56.4037 12.1529 56.6207 12.1044C57.0792 12.0084 57.4056 11.9601 57.5982 11.9598C57.7568 11.9597 57.9842 11.9808 58.2806 12.0233L58.4008 12.0413ZM18.9511 26.6752L18.9512 26.5849L18.7883 26.4581H18.698L18.897 26.6756L18.9511 26.6752ZM13.7745 24.9377C14.0519 24.624 14.0884 24.3765 13.8831 24.1957C13.7506 24.0749 13.6297 24.0568 13.521 24.1414C13.4007 24.2377 13.3099 24.298 13.2494 24.3223C13.129 24.4187 13.0686 24.5091 13.0686 24.5937C13.0688 24.6541 13.1112 24.7266 13.1952 24.8109L13.3218 24.938L13.4129 24.9375C13.5696 25.0342 13.6903 25.0346 13.7745 24.9377ZM17.4309 25.8428L17.7025 24.63L17.5396 24.6119L17.3221 25.8243L17.4309 25.8428ZM65.5604 34.6754C65.5241 34.8085 65.5785 35.2126 65.7237 35.8882C65.8559 36.5036 65.7961 36.8777 65.5423 37.0108C65.4099 37.131 65.2105 37.1856 64.9451 37.1735C64.6434 37.1616 64.4082 37.1376 64.239 37.1008C63.9015 37.0289 63.5695 37.0344 63.2434 37.119C62.8577 37.2161 62.4833 37.0831 62.1212 36.721L62.1215 35.9244C62.1215 35.6593 62.0974 35.4176 62.0489 35.2006L62.0492 34.6215C61.9648 34.2229 61.9467 33.9033 61.995 33.6618C62.0552 33.3844 62.0731 33.0523 62.0492 32.6664C62.0373 32.1117 62.0248 31.1582 62.0131 29.8069L61.9951 28.0147C61.9345 27.7369 61.8558 27.4657 61.7592 27.2003C61.7594 27.1279 61.7778 26.9772 61.8136 26.748C61.8015 26.3979 61.7593 25.8792 61.6871 25.1911L61.687 22.4037L61.7595 22.404C61.7716 22.4037 61.7839 22.3977 61.7956 22.3859L61.8497 22.3855L61.868 22.3677V22.3492C61.8921 22.3493 61.9041 22.3311 61.9045 22.295C61.9287 22.2951 61.9406 22.277 61.9404 22.2407C61.9403 22.1561 61.8983 22.0716 61.8136 21.9871C61.7535 21.9753 61.6987 21.9755 61.6508 21.9875L61.651 21.8248C61.687 21.595 61.7114 21.3421 61.7232 21.0646C61.7351 20.6783 61.7233 20.4065 61.6871 20.2497C61.5424 19.6466 61.4761 18.9765 61.4878 18.2405C61.5002 17.9873 61.5183 17.6069 61.5425 17.1003C61.5544 16.9073 61.5299 16.5213 61.4699 15.9416C61.4098 15.6647 61.3911 15.3207 61.4158 14.9101C61.4396 14.4155 61.4641 14.0958 61.4881 13.9509C61.5118 13.8542 61.5241 13.758 61.5244 13.6614C61.5242 13.8184 61.4701 13.4927 61.3613 12.6839C61.3732 12.5997 61.3977 12.3703 61.4333 11.996C61.6752 11.8149 62.0065 11.7005 62.4294 11.6525C62.7306 11.6159 63.0383 11.6159 63.3519 11.6523C63.5573 11.6761 63.6783 11.6886 63.714 11.6882C63.9314 11.6882 64.0823 11.6583 64.1668 11.5978C64.7698 11.5618 65.1318 11.6403 65.2528 11.8333C65.3615 11.9662 65.3978 12.165 65.3615 12.4303C65.3128 12.7683 65.2889 13.0036 65.2888 13.1364L65.289 14.9103C65.2892 15.4534 65.301 15.7671 65.3253 15.8518C65.3251 16.2739 65.3134 16.5934 65.2893 16.8108C65.349 17.0521 65.3794 17.4745 65.3797 18.078L65.2525 18.078C65.1446 18.0776 65.0902 18.1319 65.0902 18.2407L65.09 18.3316C65.0902 18.4397 65.1439 18.4938 65.2527 18.4938L65.3436 18.494V18.8018C65.3315 18.9343 65.3253 19.037 65.3251 19.1095L65.3248 19.5984L64.4565 19.5981C64.3477 19.5981 64.2934 19.6524 64.2934 19.7612L64.2938 19.8153C64.2938 19.924 64.3475 19.9782 64.4562 19.9782L65.1441 19.9785L65.3796 20.0146C65.3795 20.1475 65.3734 20.2922 65.3613 20.4489C65.3492 20.6055 65.3551 20.7507 65.3793 20.883C65.3794 21.9092 65.3915 23.1398 65.4154 24.5754L65.4521 26.7301C65.452 26.9347 65.4399 27.3089 65.416 27.8518C65.3918 28.2867 65.4156 28.6541 65.4881 28.9563V29.5533C65.4881 30.0359 65.4763 30.4222 65.4519 30.712C65.4158 31.1465 65.4338 31.5145 65.5064 31.8161L65.5061 33.1912C65.5182 33.2761 65.5728 33.5232 65.669 33.9334C65.6931 34.0422 65.6567 34.2897 65.5604 34.6754ZM64.1309 35.6711L64.0579 35.4L64.1306 35.1103L64.0584 34.8386L64.058 33.8613L64.004 33.8611L63.9316 33.8794L63.9314 33.3364H63.8227L63.8231 33.608L63.8768 33.6621L63.6961 33.7345L63.6963 33.9698L63.7142 33.9881L63.5874 34.0423L63.6417 34.4044L63.7143 34.4039L63.9131 34.1871L63.8226 34.6575L63.9133 35.3456L63.9137 35.3997L63.5875 35.1822H63.4973L63.4429 35.2551L63.3161 35.1102L63.2437 35.11L63.2439 35.2551L63.3883 35.2547C63.437 35.569 63.5451 35.7252 63.7141 35.7257L63.5875 35.9249L63.5877 36.0515C63.6479 36.2325 63.7566 36.3227 63.9137 36.3229V36.4131C63.9134 36.5097 63.8045 36.558 63.5877 36.5582L63.5879 36.6847L63.8232 37.0107L64.058 36.9564L64.0579 35.9969L64.0039 35.9967L63.823 36.1415L63.7145 35.9973L63.7141 35.9247H63.8228V35.7257L63.7143 35.5261L63.7145 35.4721H63.9135L64.0042 35.7253L64.0581 35.7255L64.1309 35.6711ZM67.466 28.7387C67.4977 28.3392 67.5139 28.0373 67.5137 27.834C67.5138 27.5682 67.5079 27.3754 67.4956 27.2542L67.6046 27.11L67.6044 27.0552L67.5503 27.0556V26.9654L67.4596 26.8927C67.4594 26.8323 67.4474 26.5668 67.4235 26.0963C67.4113 25.7946 67.4353 25.5352 67.4957 25.3176C67.508 25.1127 67.5504 24.8113 67.6224 24.4127L67.6222 23.5805C67.6946 23.2545 67.7133 23.0072 67.6768 22.8382C67.6529 22.5482 67.5982 22.1079 67.5142 21.5168L67.514 21.1913C67.4533 20.9618 67.3689 20.6905 67.2605 20.3764C67.2486 20.2801 67.2424 20.1655 67.2425 20.0326C67.2426 19.7192 67.285 19.3326 67.3688 18.874C67.4056 18.6812 67.4051 18.4097 67.3689 18.0595C67.333 17.6974 67.2969 17.4504 67.2607 17.3177C67.2127 17.1122 67.2242 16.8225 67.2966 16.4489C67.3813 16.0267 67.4178 15.7366 67.4051 15.5797C67.381 15.1817 67.3694 14.7052 67.3689 14.15C67.369 14.0172 67.3816 13.8905 67.4054 13.7697C67.4171 13.6491 67.4053 13.5102 67.3691 13.3534C67.212 12.6298 67.1758 12.0807 67.2603 11.7068C67.3092 11.6701 67.3931 11.6037 67.5141 11.5075C67.6347 11.4951 67.8097 11.4652 68.0386 11.4171C68.1112 11.4167 68.3046 11.4351 68.6182 11.4715C68.8235 11.5194 69.0463 11.5315 69.288 11.5074C69.4686 11.4833 69.6679 11.4528 69.885 11.4172C70.0059 11.3928 70.1864 11.3928 70.428 11.417C70.6575 11.4409 70.8265 11.4229 70.9351 11.3624C71.1277 11.3387 71.273 11.3506 71.3696 11.3986C71.5983 11.4229 71.7374 11.5618 71.7854 11.8148C71.8341 11.8876 71.8458 12.1224 71.8215 12.521C71.798 12.9191 71.7859 13.2029 71.7854 13.3719L71.8036 20.6478C71.8039 20.9016 71.7974 21.1671 71.7856 21.4447C71.8457 21.8303 71.8698 22.3556 71.8583 23.0191C71.8578 23.1035 71.8519 23.1759 71.8399 23.2366L71.8398 23.4171C71.8398 23.55 71.8457 23.671 71.8579 23.7794L71.8581 23.8157C71.8458 23.9361 71.8396 24.1235 71.84 24.3766C71.8397 24.7624 71.8398 24.9557 71.8398 24.9557C71.8157 25.7644 71.8702 26.7598 72.0025 27.9423C72.0147 28.0507 72.0207 28.1476 72.0208 28.2322C72.0211 28.5094 71.9784 28.8412 71.8941 29.2273C71.9066 29.4325 71.912 29.7466 71.9126 30.1689L71.9121 31.2185C71.9119 31.4842 71.9484 31.8096 72.0212 32.1958C72.069 32.4736 72.069 32.7387 72.021 32.9924C71.9723 33.2217 71.9844 33.463 72.0572 33.7163C72.1777 34.1871 72.4615 34.4223 72.9077 34.4225C73.0165 34.4225 73.1672 34.3982 73.3601 34.3497C74.0723 34.1689 74.7357 34.1569 75.351 34.3139C75.5442 34.3621 75.8037 34.5553 76.1297 34.8928C76.178 35.291 76.2084 35.8883 76.2203 36.6846C76.1962 37.0107 76.0753 37.5177 75.8584 38.2051C75.7494 38.2776 75.5987 38.3679 75.4054 38.4768C75.321 38.5131 75.0737 38.513 74.6634 38.4769C74.241 38.4405 73.9942 38.4042 73.9214 38.3684L73.2879 38.3322C73.071 38.3196 72.8596 38.302 72.6544 38.2776L72.0753 38.2774C71.8939 38.2778 71.4535 38.2053 70.7539 38.0605L70.0661 38.0602C69.4819 38.0601 69.1687 38.0486 69.1266 38.0253L69.132 38.0239C69.146 38.0219 69.1674 38.0163 69.1972 38.0058C69.1757 38.0121 69.1541 38.0184 69.132 38.0239C69.1298 38.024 69.127 38.0239 69.1248 38.0241L69.1266 38.0253C68.9842 38.061 68.8508 38.0786 68.7264 38.0787C68.654 38.0784 68.588 38.0728 68.5274 38.0602C68.4674 38.0483 68.3101 38.0119 68.0568 37.9518C67.9119 37.6863 67.8037 37.4086 67.7313 37.1191C67.7794 36.8655 67.7976 36.4553 67.7853 35.8884C67.7613 35.7555 67.7253 35.5447 67.6766 35.2545L67.6767 34.5488C67.5319 34.0786 67.4714 33.7526 67.4958 33.5715C67.5321 33.282 67.5444 32.9684 67.5319 32.6303C67.5198 32.3044 67.5138 31.9844 67.5139 31.671L67.5137 31.5445L67.659 31.6708H67.7677L67.7675 31.5442L67.6585 31.3992L67.5137 31.5445L67.5138 30.7115C67.4414 30.4221 67.4056 30.1204 67.4051 29.8069C67.4057 29.6031 67.4211 29.3016 67.4529 28.9015L67.466 28.7387ZM63.479 36.4679L63.4792 36.377L63.3885 36.3229L63.2438 36.4675L63.2436 36.5584L63.3158 36.6125L63.479 36.4679ZM27.0602 25.77L27.0061 25.4627L27.1506 24.3586L26.8974 24.3221L26.6442 26.1503L26.8973 26.1684L26.9159 25.9879L27.0602 25.77ZM81.5306 31.1278C81.5625 32.9529 81.5786 34.3409 81.5785 35.2911C81.578 36.0514 81.6145 36.8777 81.6873 37.7707C81.7595 38.6762 81.4935 39.2552 80.8904 39.5087C80.7332 39.6656 80.5644 39.744 80.3839 39.7439C80.2873 39.7436 80.1969 39.7258 80.1121 39.6896C79.8225 39.5686 79.5512 39.4725 79.2978 39.3996C78.7911 38.6278 78.5677 37.6078 78.6278 36.3411C78.6881 35.0738 78.7184 33.8069 78.7182 32.5397L78.7187 14.8921C78.7185 14.7471 78.6947 14.5361 78.6461 14.2587C78.5975 13.9813 78.5737 13.7702 78.5735 13.6252C78.5738 13.4199 78.622 13.2267 78.7188 13.0458C78.8152 12.9857 79.1285 12.7924 79.66 12.4665C81.1799 12.6478 82.3626 12.841 83.2074 13.0461L83.5696 14.8559L83.6235 14.8561V14.9463L83.5874 14.9829L84.0397 17.0641L83.9494 17.0641L83.5971 17.0237L83.6238 17.0643L83.6234 17.1004L83.75 17.1187L84.0401 17.1182L84.1122 17.4801C84.0282 17.5045 83.9858 17.5408 83.9857 17.5891C83.8532 17.5529 83.7504 17.462 83.6782 17.3176H83.5695L83.5334 17.3357L83.3522 17.5529L83.2617 17.4264L83.2615 17.3901L83.2981 17.3359L83.2615 17.1726C83.3461 17.1725 83.4183 17.1549 83.4786 17.1184L83.5756 17.0215L83.5971 17.0237L83.5873 17.0097L83.5756 17.0215L83.3157 16.9917L83.3161 16.9555L83.4246 16.8105L83.4249 16.7565L83.4064 16.7381C83.3339 16.6902 83.2982 16.6537 83.2975 16.63L83.2979 16.5939C83.4548 16.5812 83.5333 16.5454 83.5332 16.4849L83.6778 16.5393L83.6963 16.5393C83.696 16.4184 83.6419 16.3101 83.5334 16.2135L83.5332 15.9597L83.4791 15.7427L83.533 15.6342L83.5335 15.4893C83.3884 15.4896 83.298 15.4291 83.2614 15.3084L83.2438 15.3264L83.1168 15.2725L82.8819 15.3084L82.6827 15.272C82.6097 15.3086 82.574 15.3808 82.574 15.4895L82.5015 15.4893L82.4108 15.4167H82.3021C82.2419 15.6706 82.1934 15.809 82.1577 15.8335L82.1575 15.8875L82.0307 16.0688C82.0309 16.1293 82.1031 16.1593 82.2482 16.1591L82.2477 16.2137L80.9451 16.2136L80.9449 16.2676L81.18 16.268L81.3067 16.3041L81.47 16.2676L82.266 16.2676L82.4291 16.2133C82.5015 16.3464 82.5861 16.4124 82.6827 16.4127C82.6821 16.4971 82.7127 16.5394 82.7731 16.5393L82.7729 16.5932C82.5195 16.666 82.218 16.7146 81.8678 16.738L81.2889 16.7023L81.198 16.5934L81.0536 16.7025L81.0353 16.7019L80.9992 16.6481L80.9809 16.6475L80.9448 16.7025L80.6734 16.5935L80.655 16.5935L80.6012 16.6296L80.2933 16.5215C80.2328 16.5934 80.1485 16.6298 80.0397 16.6298L79.9132 16.63L79.877 16.5208C79.6595 16.545 79.5511 16.6418 79.5513 16.8109C79.5511 16.968 79.5936 17.0639 79.6776 17.1006C80.0153 16.8351 80.2873 16.7139 80.4925 16.7383L81.6146 16.8471L81.6329 16.8108L82.1577 16.8654V16.847C82.2301 16.8472 82.4233 17.0041 82.7366 17.3176L82.7367 17.5344C82.761 17.5949 82.7908 17.7038 82.827 17.8606L82.7909 17.8602C82.7672 18.1502 82.7128 18.2948 82.6282 18.2949L82.6821 18.3854L82.7184 18.3852L82.7365 18.331L82.8272 18.4939L82.7188 18.6568L82.7369 18.7114C82.737 18.9047 82.791 19.0613 82.8994 19.182L82.8998 19.2361L82.664 19.2724L82.6645 19.345L82.8269 19.3992C82.8274 19.4718 82.8512 19.5074 82.8995 19.5075V19.6163L82.7732 19.6528C82.7727 19.713 82.8149 19.7492 82.8998 19.7613L82.9539 19.7609V19.8696L82.8273 19.9601L82.7912 19.9781L82.7908 20.0142L82.8273 20.0688L82.7727 20.0684L82.7729 20.1232L82.7908 20.1415C82.8634 20.141 82.8997 20.1778 82.8997 20.2495L82.8814 20.3761V20.3946L82.8995 20.4492L82.8999 20.4848L82.8814 20.5033L82.8995 20.6482L82.8999 20.7023L82.8457 21.0822L82.8455 21.9691L82.8998 22.4399L82.8813 22.5486L82.8818 22.6028L82.8996 22.6211L82.8815 22.7839L82.8813 22.8379L82.9 22.8742L82.8452 22.9831V23.3626L82.8817 23.9239L82.8456 24.1594C82.8816 24.3645 82.9117 24.4856 82.9356 24.5211L82.8995 24.5576L82.9899 25.1909C82.9541 25.2396 82.9361 25.4025 82.9357 25.6796C82.7912 25.2216 82.5919 24.5278 82.3385 23.5986C82.1815 22.983 82.049 22.5545 81.9402 22.3135L81.7235 22.313C81.6625 22.3976 81.5784 22.5549 81.4695 22.7837C81.313 23.0495 81.2345 23.3873 81.2341 23.7973C81.2341 24.0148 81.2526 24.2322 81.2889 24.4495C81.4094 25.1853 81.4699 25.7765 81.4697 26.2227C81.4696 27.1729 81.4857 28.5609 81.5176 30.386L81.5306 31.1278ZM36.6171 27.7793L36.6176 27.6529L36.364 27.6525V27.7797L36.4184 27.8341L36.6171 27.7793ZM37.758 27.7069L37.7578 27.5988L37.7395 27.5982L36.6893 27.653L36.6895 27.7795L36.9433 27.7793L36.9612 27.7073L36.961 27.7797L37.215 27.7071L37.758 27.7069ZM29.2687 25.6255L29.3955 25.7888L29.3772 25.5892L29.3231 25.5896L29.2687 25.6255ZM29.9019 25.6253L29.9022 25.5714L29.8119 25.4626L29.7571 25.4629L29.7573 25.5709L29.9019 25.6253ZM34.7167 26.7477L34.7169 26.6938L34.6621 26.6755L34.5717 26.7479L34.5721 26.8021H34.6623L34.7167 26.7477ZM36.6718 26.9653V26.8565L36.4365 26.8568L36.4367 26.9648L36.6718 26.9653ZM34.3005 25.6434V24.9377C34.409 25.143 34.4636 25.2998 34.4636 25.4085L34.4269 25.6438L34.3005 25.6434ZM35.0967 24.9556L35.0062 24.9377L34.9343 25.5353L35.0064 25.571L35.0967 24.9556ZM83.1607 24.1053L83.2438 24.1055L83.2616 24.0868C83.2616 23.9305 83.2979 23.84 83.3706 23.8154L83.4245 23.8156L83.4606 23.8879L83.5874 23.725L84.4742 23.8155L85.3611 23.8158L85.3613 23.7248L85.2163 23.7251V23.5076L85.1621 23.508L85.1075 23.7251L84.9996 23.6343L84.8546 23.7248L84.8 23.6341L84.3294 23.7248L84.1667 23.6343L84.0582 23.6891C83.6961 23.6404 83.5149 23.5684 83.5152 23.4718L83.4062 23.616C83.3823 23.5805 83.352 23.5319 83.3162 23.4718L83.3524 23.146L83.3521 22.8923L83.4061 22.8925L83.4063 22.6211L83.4607 22.5482L83.4246 22.3858C83.4243 22.2649 83.37 22.2049 83.2613 22.2049L83.3157 22.0418L83.2439 21.933L83.298 21.8608L83.4607 21.861V21.7523L83.4788 21.5709L83.4246 21.5713L83.4248 21.6979H83.4064L83.4066 21.607L83.4607 21.2271C83.4243 21.1669 83.4065 21.0342 83.4068 20.8289L83.4066 20.6121L83.4244 20.5934L83.4608 20.6116L83.5693 20.5938L83.5695 20.5029C83.509 20.5031 83.4785 20.4792 83.4786 20.4309V19.797L83.4606 19.7609C83.3638 19.7613 83.3102 19.9722 83.2979 20.3946L83.2616 20.3948V20.2861L83.1533 20.2315L83.1531 20.1952L83.1892 20.1956V19.8694L83.1529 19.8696V18.53L83.7321 18.5303C83.708 18.5061 83.6963 18.4702 83.6958 18.4218C83.7563 18.3975 83.8347 18.3012 83.9311 18.1323L84.2027 17.9514L85.4881 24.1959C85.6084 24.28 85.7113 24.5272 85.796 24.9379C85.8558 25.2638 86.0191 25.4262 86.2842 25.4262C86.3931 25.282 86.4897 25.1551 86.5743 25.0462L86.6282 25.0465L86.628 25.0102L86.5917 25.0104L86.7548 24.8473C86.7306 24.6539 86.7432 24.437 86.7909 24.1953C86.8034 24.2683 86.8398 24.31 86.8997 24.3225H86.9182V24.304L86.7912 24.1414C86.8035 24.021 86.8395 23.7251 86.8995 23.2543C86.9479 22.88 86.9725 22.5788 86.9722 22.3492L86.755 22.2953L86.7547 22.259L86.8456 22.1504L86.8454 22.2044C86.9541 22.2044 87.0085 22.15 87.0083 22.0419L88.1849 16.5395L88.0221 15.3809L87.9681 15.3806L88.0223 15.1094L88.0221 14.0597L88.0584 14.0595C88.155 14.0598 88.215 14.3374 88.2391 14.8918L88.1665 15.001L88.1847 15.6888L88.2395 15.6886V15.5798L88.2935 15.5801L88.3837 15.6703L88.4566 15.218C88.5891 14.8562 88.764 14.3068 88.9812 13.5705C88.8729 13.5343 88.7761 13.5162 88.6915 13.5163L88.5469 13.5707L88.5828 13.625L88.5832 13.6792L88.4927 14.0593L88.4386 14.0597C88.3781 14.0599 88.3479 13.9871 88.3477 13.8421L88.2933 13.7877L88.2392 13.7881L88.1848 13.8425L88.1668 13.7879L88.1126 13.7883L87.9673 13.8425L87.8952 13.5708L87.7142 13.6254L87.7144 13.4258L87.6959 13.4258L87.5874 13.6796L87.5878 14.1501L87.4969 14.2587L87.443 14.2584L87.4426 14.0053C87.4431 13.8363 87.4005 13.7275 87.316 13.6793L87.2619 13.6798C87.2619 13.8603 87.2319 13.951 87.1714 13.9512L87.1712 13.8964L87.2253 13.6252L87.1714 13.6249L87.0811 13.7337L87.0268 13.6793L86.8996 13.6793L86.8452 13.9512C86.8455 14.1197 86.9239 14.3127 87.0809 14.5303V14.639H86.9722L86.9726 14.4757L86.9541 14.4757V14.5844L86.9002 14.5842L86.9539 14.6384L86.8997 15.0552L86.9725 16.0143L86.9001 16.4305L86.8996 16.7928C86.9001 17.0218 86.9417 17.185 87.0266 17.2817V17.372C86.9421 17.4566 86.8999 17.601 86.8996 17.8063L86.7915 17.8064L86.7367 17.3717L86.7913 16.7382L86.737 16.5936L86.7913 16.5392L86.7909 16.4851L86.7366 16.4308L86.7372 16.3222L86.7913 16.3218L86.7368 15.4167L86.7369 14.5305L86.7006 14.3132L86.7371 14.1503L86.6462 13.6249L86.7006 13.5706L86.6462 13.5162L86.5921 13.5166L86.574 13.5708L86.176 13.462L85.9944 13.6251L85.8862 13.3715L85.9408 13.372L86.5736 13.3177L86.7006 13.3716L86.9724 13.3172L87.0812 13.3172L87.6422 13.3716L87.823 13.3177L89.1261 13.3719C89.174 13.1424 89.3375 12.8771 89.6145 12.5754C89.8444 12.6114 90.1878 12.6479 90.6464 12.6841C91.3949 12.8165 91.9378 12.7928 92.2755 12.6118C92.3724 12.5631 92.4684 12.5391 92.565 12.5394C92.8309 12.5389 93.0421 12.7561 93.1984 13.191C93.4402 13.5407 93.5671 14.0353 93.5789 14.6752C93.6031 15.3384 93.5851 15.7848 93.5243 16.0144C93.4042 16.5209 93.3737 17.173 93.4339 17.9695C93.4947 18.7533 93.5245 19.4776 93.5243 20.1413C93.5246 19.936 93.5246 19.9545 93.5247 20.1955C93.5364 20.4488 93.5428 20.8229 93.5425 21.3174L93.5605 26.2949C93.5607 26.9225 93.5724 27.9426 93.5971 29.3543C93.6213 30.6698 93.6331 31.6893 93.6331 32.4135L93.6333 35.7438C93.6816 35.9003 93.6209 36.3047 93.4521 36.956C93.3679 37.2703 93.3617 37.5956 93.4338 37.934C93.4702 38.1029 93.4883 38.2954 93.4883 38.5129C93.4882 38.6699 93.4764 38.8146 93.4522 38.9474C93.0298 39.1526 92.5045 39.3096 91.877 39.4179C91.1293 39.5509 90.6105 39.291 90.3209 38.6399C90.1154 38.1812 90.0428 37.5477 90.1039 36.739C90.1642 35.9066 90.194 35.1164 90.1941 34.3681V26.1142C90.1937 25.8768 90.2077 25.5223 90.2336 25.0517L90.2451 24.8601C90.271 24.3894 90.2843 24.0348 90.2846 23.7975C90.2847 23.3995 90.2542 23.0254 90.1938 22.6752C90.0013 22.6271 89.844 22.5907 89.7232 22.5668C89.5547 22.8564 89.4821 23.387 89.5061 24.1596C89.289 24.5214 89.1444 24.9922 89.0717 25.5712L89.3253 25.5716L89.3255 25.6797L89.0354 25.6801C88.9513 26.3071 88.8368 27.2728 88.6916 28.5757C88.6072 29.3604 88.4924 30.2955 88.3477 31.3817C88.3478 31.6227 88.2812 31.9694 88.1485 32.4221C88.0159 32.8748 87.9499 33.2217 87.9498 33.4633C87.8413 33.7889 87.6478 34.4342 87.3706 35.3997C87.1896 36.0512 87.1712 36.7086 87.3159 37.3728C87.3402 37.4809 87.3521 37.6142 87.3522 37.7705C87.3521 38.2296 87.1167 38.5432 86.6465 38.7121C86.4047 38.8691 85.9824 38.9414 85.3795 38.9291C84.631 38.5793 84.2327 37.7768 84.1846 36.5217C84.1363 35.5081 84.0944 34.9113 84.0577 34.7301C83.9373 34.2111 83.865 33.4177 83.8406 32.3495C83.8168 31.282 83.7444 30.4887 83.6234 29.9695C83.5272 29.5592 83.4787 29.1674 83.4788 28.7929L83.4787 28.5761L83.5334 28.4671L83.5335 28.0692L83.5876 27.997H83.9856L84.058 28.069L84.0943 28.0688L84.1667 27.9602L84.1665 27.9424L84.3842 27.9602L84.4203 27.9607L84.4199 27.8881L83.642 27.7436L83.624 27.7978L83.5693 27.7973L83.5154 27.7068L83.5148 27.2C83.455 27.2003 83.4247 27.1701 83.4246 27.1097L83.4248 26.6393H83.4063C83.3459 26.6395 83.3157 26.76 83.3158 27.001C83.2675 26.8444 83.2434 26.7356 83.2439 26.6754C83.2438 26.5908 83.2859 26.4947 83.3705 26.3859L83.3702 26.1506C83.3222 26.0781 83.2978 25.9514 83.2981 25.7703C83.2979 25.5535 83.3221 25.4022 83.3703 25.3177V24.7208L83.352 24.5211L83.3703 24.5033L83.3162 24.395L83.316 24.1412L83.2434 24.1416L83.2435 24.2497H83.1533V24.1594L83.1607 24.1053ZM63.9673 33.083L63.9136 32.8114L63.9132 32.7572L63.9673 32.6666L63.9135 32.4858L63.8588 32.4854L63.7688 32.5402L63.7686 32.6126L63.8593 32.6667V32.757C63.6781 32.7568 63.5874 32.7929 63.5878 32.8655L63.5876 32.9379L63.6422 33.0286H63.714L63.7688 32.9381L63.859 32.9382L63.8593 33.0832L63.9673 33.083ZM34.3184 23.3989L34.4274 24.2681L34.373 24.7204L34.4273 24.7748L34.3726 24.775L34.3727 24.8831L34.3186 24.8835L34.3188 24.7209L34.3005 24.7202L34.3004 24.1772L34.3185 23.4174L34.3184 23.3989ZM27.712 21.1731L27.7121 20.9742L27.6579 20.7201L27.3863 20.7021L27.2053 20.9741L27.4223 21.3897L27.1511 21.4443L27.1687 22.2407L27.1145 22.7293L27.3677 22.7659L27.4767 21.9693L27.6937 21.2812L27.5852 21.2273L27.712 21.1731ZM63.9132 32.3408L64.0041 32.341L64.0037 31.5442H63.9135L63.9131 31.3998L63.8052 31.3993L63.8045 31.6166L63.8591 31.617V31.9247L63.8045 31.9243L63.7145 31.8704H63.6058L63.5331 31.9241L63.5335 32.0152C63.7022 32.0753 63.7985 32.1537 63.823 32.2505L63.8047 32.2499L63.8049 32.4134H63.9137L63.9132 32.3408ZM36.2734 24.8288L36.3276 24.7751C36.2552 24.3769 36.1651 24.1538 36.0558 24.1053L36.1651 24.7927L36.2734 24.8288ZM37.6853 24.3948V24.5036L38.0652 24.449L38.0655 24.3951L38.0111 24.3222L37.6853 24.3948ZM69.1975 32.7028L69.1974 31.8705L69.0888 31.8698C69.0888 32.0873 69.0405 32.1959 68.9438 32.1963L69.0886 32.3587L68.9983 32.5577L69.0525 32.5943L69.0523 32.7754H69.161L69.1612 32.703L69.1975 32.7028ZM35.5128 23.6891L35.6759 23.5259L35.4587 23.3448L35.2958 23.3452L35.1694 23.4535L35.1692 23.5259L35.3138 23.689L35.5128 23.6891ZM63.805 31.2728L63.8589 31.273L63.9133 31.2186L63.8048 31.0375L63.805 31.2728ZM29.0331 21.8604L29.0696 21.6975C28.9729 21.6979 28.9008 21.6196 28.8526 21.4624L28.7979 21.4627L28.7435 21.4985C28.7438 21.5953 28.8402 21.7156 29.0331 21.8604ZM63.9314 30.748L63.9316 30.4766L63.8228 30.3494L63.6963 30.3496V30.5486C63.7687 30.5488 63.8046 30.6032 63.8046 30.7119H63.6958L63.7506 30.8019L63.7502 30.8565L63.6958 30.9109L63.8233 31.0374L63.9318 30.9109L63.9314 30.8568L63.8589 30.7478L63.9314 30.748ZM15.5304 17.1728C15.6754 17.1726 15.7472 17.0824 15.7474 16.9012C15.7477 16.5396 15.6087 16.358 15.3314 16.3584C15.259 16.3582 15.1681 16.3764 15.0596 16.4128C14.7939 16.4972 14.6616 16.6117 14.6612 16.7566C14.6615 16.8775 14.7402 17.0158 14.8971 17.173C14.9206 17.1729 14.9394 17.185 14.9515 17.2089L14.9693 17.2087L14.9876 17.2093C14.8906 17.2452 14.8246 17.2872 14.7881 17.3357C14.7037 17.3962 14.6617 17.4681 14.6618 17.5527C14.6615 17.6251 14.7037 17.7039 14.7883 17.7884C14.8367 17.8121 14.8724 17.8486 14.8971 17.8972C14.9812 17.9332 15.0297 17.9512 15.0419 17.9509C15.0539 17.9513 15.0779 17.957 15.1137 17.9694C15.2829 17.9693 15.4214 17.9268 15.5301 17.8422C15.6028 17.77 15.6391 17.698 15.6387 17.6254C15.6391 17.4805 15.5183 17.348 15.277 17.2272C15.3738 17.2268 15.4582 17.2089 15.5304 17.1728ZM36.9973 22.9469L36.8348 23.0732L36.8344 23.1278L36.9614 23.2905L37.0153 23.2907L37.1787 23.1824L37.1784 23.1276L37.0521 22.9466L36.9973 22.9469ZM68.6359 31.5445L68.6907 31.3453C68.6304 31.1643 68.5212 31.0256 68.3645 30.9288L68.184 31.1278L68.1836 31.3999L68.3105 31.544L68.6359 31.5445ZM37.414 23.0734L37.2691 23.0012L37.2687 23.1276L37.4137 23.1274L37.414 23.0734ZM69.2516 29.915L69.2517 29.1191L69.1068 29.1186L69.107 29.2637C68.8895 29.2637 68.781 29.3902 68.7812 29.644L69.0526 29.8432L68.98 30.1144L69.0522 30.3861V30.4763L68.944 30.7657L68.9436 30.8203L69.1071 30.8201L68.8351 31.0372L68.8355 31.1283L68.8892 31.1824L68.9799 31.1279L69.0526 31.1644L68.9799 31.4541H69.1974L69.197 31.1825L69.2155 31.1824V30.766H69.197L69.1975 29.9154L69.2516 29.915ZM27.7118 20.3039L27.7662 19.8516L27.6578 19.4899L27.4224 19.4531L27.4222 19.5441L27.4402 20.2859L27.7118 20.3039ZM63.8048 29.6978H63.9136L63.9134 29.3723H63.8046L63.8048 29.6978ZM26.5719 19.7071L26.807 19.7608L26.8431 19.6525L26.5714 19.616L26.5719 19.7071ZM34.6628 21.4081L34.5719 21.2274L34.4636 21.1913L34.4275 21.3898L34.5356 21.4984L34.6628 21.4081ZM37.6854 22.132V22.2593L37.7391 22.3134L37.8117 22.2043L37.8118 22.0238L37.7578 22.0235L37.6854 22.132ZM29.6667 19.96L29.7028 19.8517L29.1783 19.7431C29.0693 19.7068 29.0153 19.7307 29.0154 19.8153L29.015 19.8699L29.6667 19.96ZM53.4716 26.3314V26.2226L53.2185 26.2046L53.2 26.3133L53.4716 26.3314ZM28.599 18.6029L28.6891 18.3676L28.6351 18.3674C28.5022 18.3915 28.4237 18.4458 28.3996 18.5303L28.5444 18.6025L28.5446 18.6388H28.4359L28.3276 18.7114L28.3272 18.8563L28.3998 18.8558L28.1642 19.5439C28.2366 19.5682 28.3273 19.4049 28.4359 19.0552L28.5448 19.0731L28.599 18.6029ZM63.9134 29.0646L63.9136 28.7932H63.8049L63.8046 29.0646H63.9134ZM37.0698 20.9735L37.0517 21.1364L37.2692 21.4441L37.4136 21.4622L37.5946 21.3359L37.6313 21.1908L37.3597 20.865H37.2325L37.0698 20.9735ZM26.7349 18.1866L26.6803 18.1861L26.6983 18.4397L26.7346 18.4395C26.7464 18.2948 26.807 18.2223 26.9156 18.2229L26.8432 18.114H26.7344L26.7349 18.1866ZM28.0014 18.1862L28.2367 17.8968L28.4361 18.0597L28.4905 17.915L28.454 17.8605L28.2735 17.8604L28.4542 17.6075C28.201 17.5951 28.1043 17.4441 28.1648 17.1547L27.8929 17.1004L27.7483 17.1547L27.8388 17.4803L27.6937 18.6027L27.947 18.6571L28.0014 18.1862ZM28.5805 18.0777C28.4722 18.0658 28.3755 18.1983 28.2913 18.4757V18.6029L28.3454 18.6025C28.3815 18.2767 28.4481 18.1318 28.5449 18.1684L28.5805 18.0777ZM30.7165 18.8562L30.7169 18.8016L30.4632 18.7115L30.4092 18.7113L30.3005 18.8015L30.3364 18.8559L30.7165 18.8562ZM53.3808 25.01C53.4174 24.8656 53.4833 24.8051 53.58 24.8289L53.4894 24.6845H53.3806L53.3628 24.775L53.3088 24.7747L53.3267 25.0105L53.3808 25.01ZM28.7073 18.3313L28.7076 18.1686L28.599 18.2767L28.7073 18.3313ZM54.3769 23.7248L54.485 24.0508L54.3222 25.1912L54.5756 25.2456L54.6478 24.7746L54.9014 24.4673L55.0645 24.6304L55.1184 24.5034L55.1004 24.4488L54.9014 24.4673L55.1008 24.2137C54.8472 24.1657 54.7445 24.0024 54.7927 23.7246L54.5393 23.6887L54.3769 23.7248ZM35.0426 19.7971L34.9524 19.9059L35.0965 19.9061L35.097 19.8515L35.0426 19.7971ZM55.2089 24.7387L55.2091 24.6663C55.1126 24.6419 55.0282 24.7685 54.9559 25.0462L54.9192 25.1913L54.974 25.2095C55.0464 24.8835 55.1247 24.7268 55.2089 24.7387ZM29.1416 18.1321L28.9789 18.1319L28.9787 18.2228L29.124 18.2404L29.1416 18.1321ZM29.3413 18.1323L29.3408 18.1685L29.5037 18.1865L29.8114 18.2768L30.59 18.2409L30.608 18.1683L29.5402 18.0051L29.3413 18.1323ZM68.6182 28.648L68.7449 28.4851L68.5636 28.4856L68.564 28.6484L68.6182 28.648ZM69.2516 28.7929L69.2512 28.7387C69.2518 28.6543 69.1611 28.5817 68.9803 28.5219L68.9257 28.5215L68.9259 28.648L69.2516 28.7929ZM30.8255 18.476V18.3858L30.6983 18.3673L30.6624 18.4401L30.8255 18.476ZM57.3451 25.4263L57.3809 25.3719L57.1096 25.2999L57.0734 25.2995L56.9651 25.3721L56.9832 25.4267L57.3451 25.4263ZM55.372 24.7746L55.2274 24.8475L55.2818 24.9018L55.3359 24.9014L55.372 24.7746ZM55.6436 24.7209L55.6073 24.7929L55.7519 24.8288L55.7882 24.7383L55.6436 24.7209ZM56.0055 24.7205L55.9696 24.7748L56.1323 24.7751L56.4402 24.8832L57.2364 24.8293L57.2366 24.7384L56.1682 24.612L56.0055 24.7205ZM57.3268 24.9374L57.3272 25.01L57.4532 25.0466L57.4895 24.9561L57.3268 24.9374ZM35.423 18.9105L35.2053 18.8742L35.2057 18.9284L35.4228 18.9645L35.423 18.9105ZM27.748 16.1774L27.7479 16.2677L28.0019 16.4125L28.11 16.4123L28.2916 16.1589L28.0198 16.1231L27.748 16.1774ZM53.4171 22.5487L53.3629 22.8384L53.4712 22.8745L53.5258 22.5487H53.4171ZM28.0561 16.0141L28.2914 16.0509L28.6891 13.2088L28.9611 13.2995L29.2323 13.2449L29.2328 13.2088L28.7074 13.0822L28.7981 12.4122L28.5449 12.3941L28.0558 14.0049L28.0561 16.0141ZM54.4128 22.7658L54.3767 22.8741L54.6296 22.9831L54.7386 23.0009L54.9193 22.7295L54.6477 22.7114L54.4128 22.7658ZM34.7709 17.281L34.7711 17.3358L34.8796 17.4985L34.9342 17.4989L34.7709 17.281ZM69.3782 25.3181L69.306 25.0465L69.378 24.7751L69.3058 24.5035L69.3059 23.4716L69.2517 23.472L69.1975 23.5257L69.1974 22.9827H69.0886L69.0891 23.2543L69.1428 23.3085L68.9436 23.3994L68.9442 23.58L68.9801 23.6344L68.8355 23.6888L68.8898 24.0509H68.9801L69.1612 23.8336L69.0888 24.2684L69.1612 24.9558L69.1611 25.046L68.8354 24.8294L68.7445 24.8292L68.6903 24.9014L68.5636 24.7751L68.5096 24.7748L68.5098 24.9014L68.6179 24.9012C68.69 25.2155 68.8108 25.3722 68.98 25.372L68.8349 25.5712L68.8351 25.6978C68.9198 25.8911 69.0283 25.9876 69.1611 25.9877L69.1609 26.0601C69.1613 26.1569 69.0526 26.2045 68.8351 26.2045V26.3132L69.0889 26.6392L69.306 26.5851V25.6435L69.2518 25.6439L69.0887 25.7885L68.9804 25.6436L68.98 25.571H69.0887V25.372L68.9798 25.1552L68.9802 25.1006L69.1607 25.1007L69.2514 25.3723L69.3062 25.372L69.3782 25.3181ZM86.3387 31.1639V31.0922L86.2121 30.9651L86.1573 30.9654L86.1575 30.9832L86.2845 31.1643L86.3387 31.1639ZM53.4714 21.8604L53.4175 22.2951L53.4893 22.2952L53.5439 21.8791L53.4714 21.8604ZM26.9518 15.1092L27.0062 14.6753L26.8977 14.6746L26.8429 15.0913L26.9518 15.1092ZM68.5096 26.2047L68.5639 26.2591L68.7264 26.1143L68.7266 26.0418L68.6359 25.9877L68.5096 26.1145V26.2047ZM35.2056 17.1729L35.1691 17.2086L35.2415 17.2088L35.2959 17.173L35.3142 17.0464L35.26 17.0098L35.2056 17.1729ZM35.7306 17.0464L35.7304 16.9014L35.2415 16.9011V16.9914L35.7306 17.0464ZM87.0805 30.35L87.0627 30.3317L87.0805 30.3315C87.0812 30.2229 87.0446 30.1684 86.972 30.1688L86.9542 30.169L86.954 30.223L86.972 30.2776L86.9544 30.2956L86.954 30.3317L87.0087 30.4402L87.0083 30.8025L87.0624 30.8021L87.0805 30.35ZM35.2961 16.7928L35.2959 16.8652L35.35 16.8648L35.459 16.8109L35.531 16.2318L35.423 16.2319L35.2961 16.7928ZM35.8391 16.9916L35.984 16.992L35.8933 16.9009L35.8391 16.9013V16.9916ZM84.8545 30.0058L84.8541 29.9517L84.619 29.9512L84.6192 30.006L84.8545 30.0058ZM36.5812 16.9197L36.5814 17.0462L36.9432 17.0458L36.943 16.9193L36.5812 16.9197ZM63.5172 23.7214C63.429 23.7006 63.3014 23.7496 63.1349 23.8698C63.0988 23.9063 63.0807 23.942 63.0809 23.9783C63.0805 24.0144 63.0992 24.0507 63.1349 24.0873C63.1951 24.1596 63.2921 24.1955 63.425 24.1956L63.4611 24.196C63.4733 24.1957 63.4851 24.1833 63.4972 24.1595L63.515 24.1593L63.5511 24.1597V24.1412C63.6964 23.9968 63.7084 23.87 63.5875 23.7615C63.569 23.7431 63.5475 23.7302 63.5225 23.7228L63.5172 23.7214ZM86.0125 29.9515L86.0126 29.8613L85.3795 29.8608L85.3793 29.9517L86.0125 29.9515ZM86.8637 30.223L86.9181 30.1686L86.8635 30.0779L86.8093 30.1686L86.8637 30.223ZM52.3491 20.9194L52.4581 20.8654L52.3672 20.7565L52.2226 20.8293L52.3491 20.9194ZM34.2521 15.9573L34.246 15.9962C34.2464 15.9629 34.2478 15.9498 34.2521 15.9573ZM86.0489 29.0281C86.0851 29.0044 86.1212 28.9438 86.1577 28.8476L86.1574 28.7928L86.1216 28.7569C86.0008 28.7566 85.9406 28.793 85.9404 28.8655V28.9742L85.9948 29.0286L86.0489 29.0281ZM36.581 15.1458L36.5814 15.1999L36.6352 15.2541L36.8348 15.1455V15.0368L36.581 15.1458ZM87.3701 28.739L87.3703 28.6481L87.334 28.6483L87.2798 28.739L87.28 28.7568L87.3157 28.7934L87.3701 28.739ZM34.409 13.7699L34.3729 13.8782L34.4631 14.0055L34.5175 14.0413L34.5719 13.987V13.788L34.409 13.7699ZM64.518 21.559C64.4993 21.5547 64.4792 21.5529 64.4564 21.5531C64.2269 21.5528 64.1127 21.6316 64.1125 21.7886C64.1369 21.8968 64.2273 21.9757 64.3843 22.0235L64.4022 22.0233C64.4128 22.0233 64.421 22.0191 64.427 22.0101L64.4315 22.0013C64.4375 21.9923 64.4459 21.9874 64.4566 21.9874L64.4744 21.9872C64.4864 21.9876 64.4986 21.9816 64.5105 21.9692C64.595 21.8845 64.6374 21.8006 64.6373 21.716C64.6374 21.6308 64.6006 21.5797 64.5268 21.5607L64.518 21.559ZM36.436 14.2043L36.3821 14.2226L36.3818 14.4755L36.4908 14.5118L36.5271 14.2223L36.436 14.2043ZM28.5991 11.9239L28.5448 12.286L28.8159 12.3402L28.8701 11.9418L28.5991 11.9239ZM69.2152 22.7117L69.1611 22.4577V22.3859L69.2155 22.3131L69.1609 22.1322L69.1069 22.1319L69.0341 22.1863L69.0343 22.2411L69.1067 22.3131L69.1065 22.3855C68.926 22.3855 68.835 22.4279 68.8351 22.5125V22.6028L68.8895 22.6571H68.9797L69.0341 22.6028L69.1065 22.603L69.1067 22.7111L69.2152 22.7117ZM83.0626 24.214L83.0989 24.2138L83.1171 26.3315C83.0808 26.223 83.0628 26.1628 83.0625 26.1506L83.0445 25.9873L83.0628 25.7705L83.0082 25.77V25.3721L83.0624 25.2999L83.0628 25.2638L83.0447 25.2092L83.0445 25.0826L83.0624 24.5757L83.0446 24.4672L83.0626 24.214ZM68.781 21.5713L68.7808 21.6252C68.9375 21.7219 69.0406 21.8064 69.0887 21.879L69.0526 21.8786L69.0524 22.0782H69.1611V21.9695H69.2514L69.2516 21.1729H69.1614V21.0641H69.0526V21.2816L69.1067 21.2812L69.1065 21.5711L69.0341 21.5709L68.9802 21.4989H68.8715L68.781 21.5713ZM86.574 26.7475L86.6825 26.621L86.6284 26.5127H86.5196L86.447 26.5849V26.6936L86.5199 26.748L86.574 26.7475ZM86.0493 25.4087L86.0126 25.4266L86.0674 25.5351L86.1217 25.4807L86.0672 25.4085L86.0493 25.4087ZM69.1612 20.8288L69.0522 20.7023L69.0527 20.8836L69.1068 20.8832L69.1612 20.8288ZM68.9441 20.3763L68.9985 20.4306L68.9981 20.4852L68.9439 20.5574L69.0885 20.7021L69.1969 20.5577L69.1971 20.4853L69.107 20.3943H69.1973L69.1975 20.1229L69.0884 19.9786L68.9442 19.9783V20.1773C69.0159 20.1773 69.0521 20.2439 69.0529 20.3763H68.9441ZM83.164 24.077L83.2075 23.761L83.2614 23.7613L83.2619 23.8339L83.164 24.077L83.1607 24.1053H83.1529L83.164 24.077ZM86.8092 24.5755L86.9179 24.6842L86.9723 24.6298L86.8997 24.5215L86.8092 24.5755ZM87.1171 24.6303L87.1352 24.5761L87.0624 24.413L87.0084 24.4128L87.0086 24.4491L87.081 24.6298L87.1171 24.6303ZM87.3342 24.4489L87.3701 24.413L86.9001 23.7612L86.8638 23.7614L86.8636 23.8154L87.3163 24.4491L87.3342 24.4489ZM83.0083 23.2365L83.0079 23.0736L83.0442 23.0734L83.0446 23.2363L83.0083 23.2365ZM69.0527 19.0188V19.345L69.1608 19.3448V19.0186L69.0527 19.0188ZM62.393 17.2813C62.4656 17.2091 62.4652 17.1365 62.3928 17.0645C62.2721 16.9554 62.1638 16.9377 62.067 17.0099C61.9467 17.1063 61.9404 17.1906 62.0489 17.263L62.1033 17.3174C62.1036 17.3295 62.1092 17.3353 62.1212 17.3357C62.1333 17.3354 62.1459 17.3416 62.1575 17.3539C62.1699 17.3658 62.1938 17.3722 62.2301 17.372C62.2903 17.3596 62.3446 17.3294 62.393 17.2813ZM87.4244 24.051L87.4249 23.9963L86.9002 23.4535L86.8995 23.4718C86.9116 23.6044 86.9662 23.6766 87.0624 23.6888C87.2073 23.9302 87.3279 24.0507 87.4244 24.051ZM83.099 22.7839L83.0986 22.6026H83.117L83.1168 22.7837L83.099 22.7839ZM82.3744 22.5123L82.4112 22.4944C82.3987 22.4456 82.3628 22.4097 82.3024 22.3857L82.3026 22.4035L82.2659 22.4399L82.3205 22.5121L82.3744 22.5123ZM69.0521 18.4217L69.0527 18.7111L69.1608 18.7109L69.1609 18.4217H69.0521ZM83.0627 22.1502L83.0625 21.9149L83.1166 21.8243L83.1528 21.8247L83.153 22.1502H83.0627ZM63.3701 16.6661C63.3822 16.69 63.437 16.7508 63.5334 16.847L63.5513 16.8468C63.6115 16.9191 63.6783 16.9192 63.7502 16.8469C63.919 16.7023 63.9438 16.5754 63.8229 16.4669C63.7503 16.4063 63.6781 16.3947 63.6059 16.4308L63.3701 16.6661ZM85.4697 22.4583L85.4336 22.4579L85.3248 22.3491L85.4697 22.3496V22.4583ZM86.1036 22.3496V22.4583H85.5784L85.5789 22.295L86.1036 22.3496ZM83.008 20.7021L82.9902 20.5033L83.1533 20.4489V21.2819L83.0991 21.3356L83.008 21.336V21.1186L83.0443 20.9378L83.0082 20.8287L82.9541 20.8291L82.9543 20.7567L83.0082 20.7569L83.008 20.7021ZM81.9763 20.2317L81.9768 20.1955L81.9222 20.1951L81.8678 20.2495L81.868 20.3043L81.8859 20.3041L81.9763 20.2317ZM83.1894 20.3407L83.1167 20.3944L83.0989 20.3946L83.0628 20.3039L83.0989 20.3043L83.1172 20.2495L83.1896 20.2497L83.1894 20.3407ZM83.0989 19.8694L83.1529 19.8696L83.1531 20.1952H83.0443L83.0444 20.1234L83.0985 20.123L83.0989 19.8694ZM82.6644 19.9605H82.7732L82.8273 19.8698L82.6646 19.8696L82.6644 19.9605ZM87.4427 21.0283L87.4429 20.9374H87.3341L87.3159 20.9737L87.3163 21.0279L87.3341 21.0646L87.4427 21.0283ZM83.7869 18.8562L83.7867 18.8199L83.6962 18.8021C83.5876 18.9102 83.4907 19.0732 83.4062 19.2901C83.4787 19.2903 83.5152 19.3264 83.515 19.3988L83.4791 19.5619H83.5694L83.642 19.381L83.6237 19.2183C83.732 19.1698 83.7863 19.0494 83.7869 18.8562ZM86.2299 19.4355L86.375 19.4353L86.2847 19.544L86.2303 19.4896L86.2299 19.4355ZM64.402 12.7382C64.3414 12.7866 64.3056 12.8168 64.2932 12.8284C64.2452 12.8646 64.2213 12.9008 64.2215 12.9371C64.233 12.9736 64.2574 13.01 64.2933 13.0459L64.3478 13.1366C64.3841 13.1364 64.4024 13.1427 64.402 13.1547L64.4561 13.1542C64.6493 13.1548 64.7459 13.094 64.7462 12.9733C64.7462 12.9257 64.7278 12.883 64.6919 12.8471L64.5473 12.7743C64.7156 12.7746 64.8003 12.7078 64.8002 12.5755C64.8004 12.3944 64.728 12.3039 64.5832 12.3035C64.3415 12.3034 64.2211 12.3763 64.2213 12.5214C64.2208 12.5816 64.2634 12.6534 64.3481 12.738L64.3657 12.7384L64.3842 12.7384L64.402 12.7382ZM82.4651 17.4261L82.5012 17.3896L82.4108 17.2815L82.3564 17.3359L82.411 17.4265L82.4651 17.4261ZM83.153 17.2274L83.1165 17.2815L83.1167 17.3178L83.1532 17.3354L83.1169 17.5347L83.1532 17.5529L83.1165 17.5893L83.0445 17.5529L83.0447 17.064L83.0625 17.0638L83.153 17.2089V17.2274ZM83.1169 16.9192L83.0443 17.0099L83.0447 16.865L83.0987 16.8653L83.1169 16.9192ZM82.9904 16.7019L83.008 16.7024L83.0443 16.8109L82.9904 16.8107V16.7019ZM83.9314 16.2136L84.058 16.2134L84.0579 16.3221L83.9312 16.2675L83.9314 16.2136ZM86.0493 16.0142L85.8504 16.0142L85.6505 15.7972L85.7958 15.6343L85.9948 15.6343L86.1218 15.797V15.9057L86.0493 16.0142ZM82.4293 11.7246V11.8334L82.1573 11.833L82.1579 11.7244L82.4293 11.7246ZM84.8543 12.3581V12.4668L84.6732 12.4666L84.6738 12.358L84.8543 12.3581ZM83.2614 11.7067L83.2618 11.7793L82.8817 11.779L82.8812 11.7064L83.2614 11.7067ZM86.7548 12.5752L86.6461 12.6839L86.5923 12.6298L86.5921 12.575L86.6463 12.5213H86.755L86.7548 12.5752ZM84.6188 11.7065L83.533 11.7247L83.5332 11.6523L84.1124 11.6525L84.3296 11.5978L84.3292 11.6524L84.3835 11.598L84.6195 11.598L84.6188 11.7065ZM84.945 11.5978V11.7065L84.7276 11.7065V11.5978L84.9089 11.5256L84.945 11.5978ZM34.3187 23.3449L34.3188 22.1325C34.3907 22.2406 34.4273 22.3798 34.427 22.5481L34.4274 22.9285L34.3187 23.3449Z" fill="white"/>
</g>
<defs>
<clipPath id="clip0_4014_18">
<rect width="16" height="31" fill="white" transform="translate(10 9)"/>
</clipPath>
</defs>
</svg>
